<svg width="21" height="14" viewBox="0 0 21 14" fill="none" xmlns="http://www.w3.org/2000/svg">
<path d="M14.0479 13.9593C14.1238 13.9023 14.1865 13.8323 14.2324 13.7533C14.2784 13.6743 14.3066 13.5878 14.3155 13.4989C14.7057 11.9686 15.8689 9.95185 17.9629 8.88493C18.5375 8.595 19.1542 8.37939 19.7949 8.24438C20.1708 8.1493 20.5578 8.08624 20.9469 8.05622V8.0362H21V5.92538H20.9469V5.90337C20.5551 5.87345 20.1672 5.81046 19.7882 5.7152C19.1504 5.57891 18.5362 5.36406 17.9629 5.07666C15.8324 3.99573 14.6892 2.04705 14.3155 0.585795C14.2436 0.30155 14.1386 0.1264 13.9948 0.0493336C13.8489 -0.0277326 13.5681 -0.00871625 13.264 0.0663483L11.6786 0.408643C11.9959 2.47942 12.9246 3.98572 14.52 5.00559C14.8826 5.22879 15.2663 5.42095 15.6687 5.58009L16.5333 5.93639H0V8.02519H16.5333L15.6687 8.38049C15.2674 8.53763 14.8826 8.72679 14.52 8.94598C12.9246 9.96285 11.9959 11.4681 11.6786 13.5439L13.3016 13.8952C13.6278 13.9823 13.8854 14.0464 14.0479 13.9593Z" fill="black"/>
</svg>
