<svg width="21" height="14" viewBox="0 0 21 14" fill="none" xmlns="http://www.w3.org/2000/svg">
<path id="Vector" d="M6.95209 0.0413017C6.87623 0.0983364 6.81355 0.168359 6.76764 0.247359C6.72173 0.326358 6.69349 0.412782 6.68453 0.501678C6.29425 2.03193 5.13115 4.04758 3.03712 5.11445C2.46249 5.40436 1.84583 5.61996 1.20512 5.75497C0.829209 5.85005 0.442245 5.9131 0.0530694 5.94313V5.96314H0V8.07287H0.0530694V8.09689C0.445562 8.12691 0.833632 8.18996 1.21175 8.28504C1.84961 8.4213 2.46379 8.63615 3.03712 8.92356C5.16763 10.0044 6.31083 11.953 6.68453 13.4142C6.7564 13.6985 6.86143 13.8736 7.00516 13.9507C7.14999 14.0277 7.43193 14.0087 7.73597 13.9337L9.32142 13.5914C9.00411 11.5197 8.07539 10.0135 6.47999 8.99362C6.11734 8.77067 5.73281 8.57837 5.33126 8.41915L4.46667 8.06286H21V5.97515H4.46667L5.33126 5.61986C5.7326 5.46273 6.11735 5.27358 6.47999 5.0544C8.07539 4.03657 9.00411 2.53234 9.32142 0.45564L7.69838 0.103352C7.37222 0.0172821 7.11462 -0.0447686 6.95209 0.0413017Z" fill="black"/>
</svg>
